<?xml version="1.0" encoding="UTF-8"?> <svg xmlns="http://www.w3.org/2000/svg" width="128" height="32" viewBox="0 0 128 32" fill="none"> <path fill-rule="evenodd" clip-rule="evenodd" d="M47.3553 22.0667C48.271 21.0842 49.167 20.1425 50.1165 19.15C51.8774 17.3092 50.6812 17.4336 53.8194 17.2024C55.4533 17.0819 57.5155 17.1752 59.0754 16.9507C59.7289 16.8567 61.7859 15.1614 62.4892 14.7088C60.799 14.5479 57.1516 15.1189 55.2714 15.2816C53.9088 15.3995 50.0988 14.2298 48.589 13.8331C46.4417 13.2689 44.2299 12.7793 42.0334 12.2757C40.4735 11.9179 36.8958 10.8684 35.4963 10.8284C35.6154 10.9184 40.9865 16.5393 42.6493 18.0063L45.8008 20.7216C46.3278 21.1586 46.8468 21.6855 47.3553 22.0667ZM35.2763 5.99267L37.4239 7.11404L35.8845 4.42643C35.7784 4.25694 35.6804 4.08469 35.6125 3.99231L35.2246 3.57311L35.2761 5.99267H35.2763ZM13.3098 17.0711L13.4665 18.4368C14.0794 18.3113 15.2944 17.8636 15.7113 17.4986L15.202 16.4316L13.3098 17.0711ZM12.8425 14.8912C13.3763 15.2484 14.9498 15.8492 15.6494 15.6484C16.2932 15.4636 17.9981 14.6155 18.4116 14.5947C17.5186 14.4119 13.9655 14.7921 12.8425 14.8912ZM32.1876 3.73312C32.7916 4.23898 34.0934 5.14422 34.7704 5.51957L34.7221 2.86812C34.3084 2.888 32.46 3.47548 32.1876 3.73312ZM9.37152 15.7596C9.78823 16.0271 11.4367 16.2745 12.0359 16.4326C12.9425 16.6717 13.6497 16.6478 14.3591 16.0442C11.4702 14.9951 11.2313 14.8259 9.37145 15.7596H9.37152ZM31.6071 3.21248L34.3286 2.38433C34.0099 1.94865 31.7313 0.27079 31.2383 0L31.6071 3.21248ZM27.4145 17.997C27.2548 17.8268 27.4095 17.9534 27.1477 17.7643L24.7601 16.5533C23.958 16.1638 22.8025 15.4795 22.0211 15.2531C22.3843 15.8498 23.5917 16.8114 24.0548 17.3418C24.4436 17.7872 24.5781 18.0029 25.3636 18.0245C26.0107 18.0423 26.7665 18.0272 27.4145 17.9968V17.997ZM40.5331 26.7901L37.0605 22.4661C37.0891 22.7255 37.4989 25.9055 37.5103 25.9344C37.6739 26.3504 38.0932 26.2807 38.9057 26.4573C39.4876 26.5837 39.9493 26.6908 40.5331 26.7901ZM30.1036 7.94104C30.8017 7.7202 34.1252 6.32161 34.4615 6.00011L31.6071 3.95149L30.1036 7.94111V7.94104ZM32.0863 22.9554L29.5783 19.6212C29.3464 19.2875 28.932 18.8202 28.6795 18.5486L25.5302 18.5294C26.1246 19.1675 27.874 20.4869 28.6692 20.9432C29.8357 21.6125 30.9554 22.3211 32.0863 22.9552V22.9554ZM35.4998 31.9071L39.3961 28.561C39.8466 28.1911 40.3029 27.8791 40.6766 27.4031L37.3524 26.6508C37.1291 28.0804 35.5933 30.7755 35.4998 31.9069V31.9071ZM41.2464 26.698L42.8369 23.4067L37.4511 21.9376C37.6526 22.3576 40.9392 26.4761 41.2466 26.698H41.2464ZM35.3863 10.2311L43.2541 12.016C42.8271 11.4407 40.2463 9.62415 39.46 9.05357C38.5491 8.39243 38.527 8.01192 37.464 8.73905L35.3863 10.2311ZM30.4413 8.52896C30.9467 8.78681 33.8451 9.82236 34.3155 9.90893C34.8031 9.99864 37.2398 8.36965 37.6776 7.93107C37.2758 7.49581 36.5757 7.24794 36.0297 6.95027C35.1083 6.44774 35.1585 6.33265 34.1538 6.80073C33.4496 7.12889 30.7789 8.12709 30.4413 8.52896ZM5.31027 14.4522C7.31105 15.0314 9.59399 14.6096 11.7101 14.4407C13.9077 14.2653 16.1926 14.1915 18.3857 13.9438C17.968 13.6243 15.8141 13.1456 15.32 13.0143C12.9957 12.3966 7.39905 13.5669 5.31027 14.4522ZM48.2532 21.9743C49.5096 21.8091 50.9098 21.4397 52.1809 21.1679C53.0543 20.9811 55.4266 20.7542 55.9367 20.1894C55.6777 19.6338 52.1489 17.9626 51.7782 17.8996C50.9375 19.3014 48.7078 20.9808 48.2532 21.9743ZM34.103 23.7082L36.706 23.7101C36.8745 21.112 35.5528 21.2392 33.0949 20.2819C32.1982 19.9329 30.5805 19.1265 29.7631 18.9803C30.08 19.6086 30.3257 19.7196 30.7249 20.2683L32.6954 22.8262C33.1487 23.4894 33.0644 23.7042 34.103 23.7082ZM22.2778 13.2349C22.8554 13.2504 33.2699 10.4243 33.5535 10.2111C32.4804 9.79937 31.4887 9.49278 30.4225 9.10181C29.238 8.6674 29.6695 8.77655 27.6023 9.998L22.2778 13.2349ZM21.4628 20.2237L24.9759 20.8258L27.5321 20.7294C26.9644 20.4589 24.92 18.7131 24.6602 18.66C24.3783 18.6027 21.8222 19.9867 21.4628 20.2237ZM30.1415 18.4375C30.7134 18.9027 34.7373 20.3811 35.7934 20.8189C36.6213 21.1619 36.5801 21.162 37.1312 20.6244C38.0247 19.7527 39.5962 18.5245 40.407 17.6481C39.9285 17.39 31.4152 18.244 30.1415 18.4375ZM15.1864 10.6969C14.8912 11.1222 14.6843 11.7571 14.5896 12.3047C15.8241 12.5428 17.0168 12.9319 18.2769 13.2599C21.3355 14.0562 19.9602 13.8633 24.5895 11.2306C25.2827 10.8363 26.9476 9.90667 27.464 9.44108C25.9332 9.60391 22.8244 10.654 21.2101 11.1239C16.4405 12.5125 18.7666 11.753 15.1864 10.6971V10.6969ZM1.04143 22.209C1.95847 21.8844 2.22855 21.656 3.17667 21.2558C5.04135 20.4688 4.46165 20.8901 5.53231 19.4446C5.86629 18.9936 6.15596 18.753 6.48731 18.2827C6.82394 17.8048 7.08415 17.5787 7.44387 17.1211C8.0468 16.3541 8.37656 15.5854 9.56404 15.1886C8.66237 15.077 7.75371 15.3293 6.84767 15.3179C6.04909 15.3078 5.09875 14.9302 4.29567 14.8054C3.50366 17.8384 4.12195 18.3874 2.26157 20.2282C1.93174 20.7927 1.90736 20.7978 1.04143 22.209ZM15.6825 16.1389C16.0456 17.7825 17.5959 18.122 19.6343 19.0402C20.663 19.5036 20.8378 19.9303 21.8795 19.3759C22.5909 18.9976 23.4558 18.6558 24.1269 18.2096C23.5112 17.3791 22.2132 16.2999 21.5309 15.5635C20.0478 13.9622 20.2273 14.4553 18.2881 15.1782C17.4063 15.507 16.5657 15.9388 15.6825 16.1389ZM37.2237 21.3035C38.7665 21.8377 42.5978 23.0713 44.1755 22.7657C45.02 22.602 45.8616 22.4664 46.7001 22.3037C46.3875 21.7304 44.5524 20.3473 44.0313 19.8815L41.3424 17.5751L37.2237 21.3035ZM51.371 9.57541C51.3409 9.55283 51.2941 9.48211 51.2775 9.51386L50.1271 9.08271C49.7263 8.96704 49.2004 8.77408 48.7595 8.69859L39.2878 8.2426C39.5873 8.59828 44.4525 12.1932 44.7082 12.2299C45.1304 12.2904 50.9019 9.91106 51.371 9.57541ZM4.24448 14.1467C5.05156 13.9634 8.04301 13.3104 8.49531 12.8644L3.68045 7.42734C3.31628 7.0989 3.234 6.41853 2.68942 6.17171C1.97691 5.84893 0.691861 5.02418 0.174438 4.96334C2.1848 10.0647 2.24992 10.0122 4.24448 14.1466V14.1467ZM21.2931 14.2098L28.7869 17.9513L33.8942 10.8259C33.1311 10.8035 21.6289 13.9438 21.2932 14.2098H21.2931ZM29.4613 17.9382L40.6497 16.9876C40.514 16.621 40.2147 16.4249 39.9964 16.2206C39.2426 15.5148 35.0949 11.0032 34.6323 10.7529L29.4613 17.9382ZM45.7353 12.5785C48.3526 13.327 51.1544 13.9421 53.8419 14.6324C55.1673 14.9729 61.3314 14.2695 63.0394 14.045C62.3247 12.4632 61.0805 12.3914 59.2228 11.8364C57.6864 11.3771 56.1639 10.902 54.6275 10.4425C52.0469 9.67061 52.5181 9.71017 50.0798 10.7374C49.0961 11.1517 46.3783 12.0139 45.7351 12.5784L45.7353 12.5785Z" fill="white"></path> <path d="M68.1771 26.3509H71.3554V23.4166L72.5186 22.1359L75.402 26.3509H79.2194L74.7304 19.8822L79.0719 15.0024H75.3037L71.3554 19.6067V15.0024H68.1771V26.3509Z" fill="white"></path> <path d="M84.7758 26.5777C88.3148 26.5777 90.9689 23.9352 90.9689 20.6766C90.9689 17.3856 88.3474 14.7754 84.8087 14.7754C81.2699 14.7754 78.6158 17.4179 78.6158 20.6766C78.6158 23.9675 81.2371 26.5777 84.7758 26.5777ZM84.8087 23.7406C83.072 23.7406 81.876 22.3139 81.876 20.6766C81.876 19.0067 83.0394 17.6125 84.7758 17.6125C86.5289 17.6125 87.7249 19.0392 87.7249 20.6766C87.7249 22.3464 86.5617 23.7406 84.8087 23.7406Z" fill="white"></path> <path d="M92.3966 26.3509H95.5423V20.1254L100.441 26.3509H103.226V15.0024H100.08V21.001L95.3621 15.0024H92.3966V26.3509Z" fill="white"></path> <path d="M105.031 26.3509H109.389C113.517 26.3509 115.926 23.919 115.926 20.6443C115.926 17.3369 113.55 15.0024 109.454 15.0024H105.031V26.3509ZM108.209 23.5624V17.7584H109.503C111.404 17.7584 112.665 18.8447 112.665 20.6604C112.665 22.5247 111.404 23.5624 109.503 23.5624H108.209Z" fill="white"></path> <path d="M117.337 26.351H120.515V22.914H121.908L124.218 26.351H127.888L125.152 22.3952C126.577 21.7954 127.511 20.6444 127.511 18.9097C127.511 17.7585 127.167 16.8831 126.495 16.2184C125.725 15.4564 124.513 15.0024 122.76 15.0024H117.337V26.351ZM120.515 20.4498V17.7262H122.596C123.661 17.7262 124.316 18.1801 124.316 19.0717C124.316 19.9311 123.694 20.4498 122.612 20.4498H120.515Z" fill="white"></path> <path d="M68.1632 12.9185H70.996C73.6796 12.9185 75.2451 11.3378 75.2451 9.20917C75.2451 7.05948 73.7009 5.54199 71.0386 5.54199H68.1632V12.9185ZM70.2292 11.106V7.33346H71.0705C72.3058 7.33346 73.1259 8.03951 73.1259 9.21973C73.1259 10.4316 72.3058 11.106 71.0705 11.106H70.2292V11.106Z" fill="white"></path> <path d="M76.6561 12.9185H78.8286L79.3611 11.6012H82.2363L82.7795 12.9185H84.9945L81.821 5.48926H79.8296L76.6561 12.9185ZM79.9681 10.0101L80.8094 7.91299L81.6401 10.0101H79.9681Z" fill="white"></path> <path d="M90.463 13.0662C92.7632 13.0662 94.4885 11.3485 94.4885 9.23038C94.4885 7.09115 92.7845 5.39453 90.4843 5.39453C88.184 5.39453 86.4589 7.11222 86.4589 9.23038C86.4589 11.3695 88.1627 13.0662 90.463 13.0662ZM90.4843 11.2221C89.3554 11.2221 88.5781 10.2947 88.5781 9.23045C88.5781 8.14503 89.3342 7.23879 90.463 7.23879C91.6024 7.23879 92.3799 8.16618 92.3799 9.23045C92.3799 10.3159 91.6237 11.2221 90.4843 11.2221Z" fill="white"></path> <path d="M115.034 12.918H115.524L118.804 5.48877H118.219L115.29 12.2753L112.372 5.48877H111.754L115.034 12.918Z" fill="url(#paint0_linear_0_8266)"></path> <path d="M124.928 12.9918C126.248 12.9918 127.1 12.4754 127.888 11.7061L127.515 11.3478C126.759 12.0855 126.024 12.4965 124.949 12.4965C123.17 12.4965 121.797 11.0422 121.797 9.17707C121.797 7.30133 123.149 5.85761 124.938 5.85761C126.056 5.85761 126.802 6.32125 127.452 6.94304L127.814 6.57421C127.047 5.8787 126.28 5.3623 124.949 5.3623C122.798 5.3623 121.222 7.09046 121.222 9.17707C121.222 11.3162 122.798 12.9918 124.928 12.9918Z" fill="url(#paint1_linear_0_8266)"></path> <defs> <linearGradient id="paint0_linear_0_8266" x1="115.279" y1="5.48877" x2="115.279" y2="12.918" gradientUnits="userSpaceOnUse"> <stop stop-color="#FAC764"></stop> <stop offset="1" stop-color="#FFE37E"></stop> </linearGradient> <linearGradient id="paint1_linear_0_8266" x1="124.555" y1="5.3623" x2="124.555" y2="12.9918" gradientUnits="userSpaceOnUse"> <stop stop-color="#FAC764"></stop> <stop offset="1" stop-color="#FFE37E"></stop> </linearGradient> </defs> </svg> 